<svg xmlns="http://www.w3.org/2000/svg" xml:space="preserve" style="enable-background:new 0 0 194.007 169.412" viewBox="0 0 194.007 169.412"><path fill="#010101" d="M159.274 33.32c.395-.736.862-1.42 1.365-2.085 1.294-1.688 2.931-3.06 4.537-4.436 2.177-1.85 4.431-3.607 6.619-5.447 1.934-1.623 3.793-3.329 5.627-5.063 1.276-1.233 2.574-2.445 3.812-3.721.833-.828 1.58-1.734 2.327-2.64.574-.651 1.072-1.358 1.55-2.079.37-.627.839-1.18 1.3-1.738.385-.492.808-.951 1.158-1.47.305-.41.524-.872.732-1.335 2.233-2.164 4.157-4.95 5.058-2.14.24.908.41 1.834.544 2.761.202 1.373.09 2.735-.14 4.094-.362 1.885-1.165 3.627-2 5.34-1 1.98-2.074 3.922-3.127 5.875-.99 1.748-1.897 3.541-2.78 5.346-.55 1.066-1.038 2.19-1.823 3.111-4.178 3.1-4.464 4.766-5.947 1.032-.753-2.016-1.482-4.04-2.29-6.034-.931-2.267-1.95-4.498-3.02-6.705-.754-1.582-1.664-3.076-2.567-4.574-.545-.903-1.072-1.829-1.314-2.862-.023-.3-.057-.754.223-.972 3.388-2.64 3.082-2.864 5.516-3.694 1.542-.488 3.11-.885 4.685-1.254 2.115-.48 4.252-.843 6.399-1.152 1.162-.164 2.325-.316 3.488-.469l-3.704 3.434c-1.162.154-2.325.306-3.485.476-2.153.329-4.297.715-6.414 1.229-1.587.392-3.173.81-4.71 1.37-.185.075-.373.142-.553.228-.147.068-.556.336-.43.234 1.27-1.002 2.57-1.96 3.856-2.938-.107.06-.363.178-.436.303-.04.074-.035.166-.052.248.079 1.006.641 1.899 1.113 2.766.883 1.533 1.764 3.068 2.5 4.68a192.686 192.686 0 0 1 3.012 6.744c.818 1.975 1.574 3.975 2.41 5.942.152.344.328.773.525 1.101.032.055.238.399.387.426.047.008.168-.088.13-.059-1.318 1.008-2.649 2-3.973 3.002 1.018-.703 1.449-1.988 2.054-3.013.904-1.817 1.812-3.631 2.82-5.395 1.053-1.941 2.119-3.879 3.122-5.848.82-1.664 1.633-3.345 2.01-5.178.238-1.298.373-2.6.173-3.916-.125-.892-.3-1.781-.548-2.648-.038-.117-.098-.43-.212-.524-.042-.035-.005.198.04.164 1.394-1.017 2.74-2.097 4.11-3.148-.41.328-.45.932-.776 1.332-.365.52-.698 1.055-1.155 1.504-.429.582-.957 1.082-1.334 1.703-.469.75-.958 1.49-1.553 2.149-.752.931-1.515 1.857-2.361 2.709-1.25 1.314-2.594 2.533-3.897 3.795-1.855 1.752-3.734 3.48-5.687 5.125-2.168 1.844-4.42 3.586-6.588 5.428-1.555 1.33-3.152 2.64-4.43 4.25-.465.617-.976 1.224-1.258 1.951l-4.64 2.75z"/><path fill="#501919" d="M102.87 15.22c-7.511.17-15.041 3.373-19.838 9.195-8.416 9.532-11.364 22.898-10.014 35.366 1.138 10.52 5.568 20.428 10.848 29.46 9.382 15.657 22.465 28.613 35.853 40.853 2.59.05 3.851-3.367 2.533-5.348-.154-.394-.889-.666-.258-.978 2.225-2.453 2.932-5.848 4.294-8.776 8.703-10.336 16.818-21.28 23.017-33.31 5.929-11.866 12.733-23.542 15.354-36.675 1.3-5.848 1.266-12.614-2.572-17.506-3.97-4.852-10.168-6.975-15.827-9.227-5.238-1.768-11.325-3.069-16.531-.537-2.246 1.054-3.977 2.928-5.014 5.184-.338.335-.504 1.693-.958.927-5.09-5.925-13.113-8.919-20.887-8.656zm-5.833 3.64c7.25-.023 15.066 1.387 20.464 6.612 1.35.826 2.235 2.23 2.462 3.781.677 2.797-.005 6.041 1.671 8.53.764.968 2.346 1.588 3.414.935 2.686-2.229 2.686-6.049 2.589-9.252-.08-2.965.176-6.602 2.91-8.381 3.078-1.803 6.872-.805 10.004.299 2.965 1.326 6.218 1.834 9.094 3.404 4.932 2.4 9.594 6.63 10.48 12.274.743 11.93-4.115 23.217-9.304 33.667-5.685 12.248-12.633 23.945-20.952 34.603-3.696 5.397-8.667 9.944-11.464 15.907-12.677-11.061-24.428-23.541-32.514-38.432-6.825-12.274-10.218-26.959-7.306-40.911 1.402-6.362 3.974-12.717 8.208-17.739 2.56-3.013 6.24-5.298 10.245-5.339z"/><path fill="#010101" d="m110.211 72.656-4.95 2.055a84.608 84.608 0 0 1-2.35 2.805c-3.079 3.54-6.105 7.129-9.17 10.682-6.061 7.105-12.798 13.565-19.712 19.826-4.882 4.301-9.821 8.537-14.783 12.747-.547-.526-1.167-.955-1.789-1.39-3.211-2.304-6.91-3.747-10.572-5.157-7.025-2.522-14.38-3.924-21.709-5.221-4.838-.752-2.452-.41-7.154-1.037l-3.577 2.535c4.757.565 2.343.244 7.224.955 7.252 1.252 14.532 2.655 21.425 5.31 3.502 1.454 7.036 2.954 10.005 5.37.632.497 1.289.983 1.775 1.631l3.021-1.851c-2.037 1.724-4.076 3.449-6.117 5.17l-4.19 2.002c-.317.865-.722 1.687-1.164 2.49a1079.193 1079.193 0 0 0-5.846 4.969l-1.567.795a90.957 90.957 0 0 0-3.286-.897c-5.606-1.37-11.276-2.43-16.95-3.463-4.987-.89-9.99-1.703-14.992-2.504l-3.785 2.668c5.063.719 10.121 1.455 15.155 2.364 5.544 1.035 11.085 2.129 16.501 3.722 1.382.434 2.767.865 4.096 1.447-1.258 1.08-2.516 2.16-3.773 3.243l3.438-1.391c-1.803 3.342-4.118 6.377-6.39 9.41a506.14 506.14 0 0 0-8.974 12.362c-1.192 1.695-2.385 3.389-3.571 5.088l4.443-1.934a866.8 866.8 0 0 1 3.457-5.037c2.9-4.166 5.85-8.295 8.93-12.33 2.526-3.334 5.093-6.668 7.072-10.366.3-.627.607-1.264.847-1.922 1.04-.906 2.08-1.812 3.122-2.717a179.946 179.946 0 0 0-5.005 8.981c-2.184 4.227-3.95 8.645-5.6 13.102a163.018 163.018 0 0 0-2.243 6.572l4.487-2.117a141.69 141.69 0 0 1 2.098-6.478c1.59-4.434 3.312-8.823 5.517-12.993 2.023-3.795 4.186-7.508 6.535-11.111.392-.637.788-1.274 1.157-1.928.586-.498 1.175-.996 1.763-1.49 8.207-6.981 16.423-13.942 24.522-21.046 7.069-6.37 13.962-12.943 20.244-20.103 3.236-3.647 6.444-7.311 9.733-10.909.87-.97 1.727-1.962 2.645-2.912zm-83.76 49.306-3.697 2.612 3.015.421c5.302.817 10.638 1.633 15.75 3.313 1.243.441 2.582.844 3.665 1.623l4.5-2.912c-1.255-.727-2.671-1.098-4.051-1.504-5.306-1.451-10.759-2.26-16.186-3.104-.997-.161-1.996-.323-2.995-.465zm34.571.344-4.689 2.58c.32.826.328 1.71.323 2.584-.229 3.092-1.27 6.032-2.364 8.905-1.832 4.365-3.98 8.592-6.099 12.824-1.29 2.54-.66 1.287-1.896 3.754l4.386-1.984c1.19-2.444.582-1.203 1.826-3.723 2.098-4.266 4.235-8.516 6.118-12.881 1.165-2.98 2.308-6.028 2.636-9.233.032-.95.028-1.9-.24-2.831z"/></svg>